<svg xmlns="http://www.w3.org/2000/svg" viewBox="0 0 14.75 14.75">
	<g>
		<path d="M7.38,0a7.38,7.38,0,1,0,7.37,7.38A7.39,7.39,0,0,0,7.38,0Zm0,14A6.63,6.63,0,1,1,14,7.38,6.63,6.63,0,0,1,7.38,14Z" fill="#ff8610"></path>
		<path d="M9.91,4.44A3,3,0,0,0,7.45,3.38,3.48,3.48,0,0,0,6,3.68a3.27,3.27,0,0,0-1.08.87,3.72,3.72,0,0,0-.69,1.29A5,5,0,0,0,4,7.4,5.6,5.6,0,0,0,4.17,9a3.47,3.47,0,0,0,.63,1.26,2.86,2.86,0,0,0,1.08.85,3.79,3.79,0,0,0,1.57.31,3.51,3.51,0,0,0,1.26-.2,2.82,2.82,0,0,0,.94-.54,3.2,3.2,0,0,0,.66-.8,4.48,4.48,0,0,0,.42-1h-1a2.17,2.17,0,0,1-.82,1.29,2.39,2.39,0,0,1-1.48.45,2.37,2.37,0,0,1-1.12-.25,2.15,2.15,0,0,1-.79-.64,2.51,2.51,0,0,1-.48-.95A4.39,4.39,0,0,1,4.9,7.58h5.89A4.76,4.76,0,0,0,9.91,4.44Zm-5,2.41a3.79,3.79,0,0,1,.25-1A2.91,2.91,0,0,1,5.66,5a2.08,2.08,0,0,1,.76-.58,2.23,2.23,0,0,1,1-.22,2.64,2.64,0,0,1,1,.2,2.34,2.34,0,0,1,.76.57,2.77,2.77,0,0,1,.45.85,3.4,3.4,0,0,1,.15,1.06Z" fill="#ff8610"></path>
	</g>
</svg>