<svg xmlns="http://www.w3.org/2000/svg" viewBox="0 0 800 800">
	<g>
		<path d="M172.57,786.6a31,31,0,0,1-31-31.05,30.51,30.51,0,0,1,.29-4.16l32.82-238.26L9,346.35a31,31,0,0,1,16.32-52.29L259,250.71,372.45,30.2a31,31,0,0,1,55.09,0L541,250.76l233.63,43.3A31,31,0,0,1,791,346.36L625.28,513.13,658.1,751.39a31,31,0,0,1-44.31,32L400,678.68,186.21,783.43A31.05,31.05,0,0,1,172.57,786.6ZM60.26,342.26l156,157-31,224.86a9.29,9.29,0,0,0,13.25,9.61L400,635l201.44,98.7a9.28,9.28,0,0,0,13.25-9.6L583.75,499.21l156-156.95a9.28,9.28,0,0,0,0-13.13,9.38,9.38,0,0,0-4.85-2.55L515,285.8,408.25,78.49a9.26,9.26,0,0,0-16.5,0L285,285.8,65.15,326.58a9.29,9.29,0,0,0-4.89,15.68Z" fill="#ff8610"></path>
	</g>
</svg>