<svg xmlns="http://www.w3.org/2000/svg" viewBox="0 0 71.26 71.26">
	<g>
		<path d="M35.63,0A35.63,35.63,0,1,0,71.26,35.63,35.67,35.67,0,0,0,35.63,0Zm32.1,35.63a32.1,32.1,0,1,1-32.1-32.1A32.14,32.14,0,0,1,67.73,35.63Z" fill="#fff"></path><path d="M35.6,13.05,25.07,24.18a1.86,1.86,0,0,0-.52,1.34,1.9,1.9,0,0,0,.59,1.31,1.88,1.88,0,0,0,2.65-.08l6-6.31V56.17a1.88,1.88,0,0,0,3.75,0V20.53l6,6.31a1.87,1.87,0,0,0,2.65.08,1.84,1.84,0,0,0,.59-1.31,1.89,1.89,0,0,0-.51-1.34Z" fill="#fff"></path>
	</g>
</svg>