<svg xmlns="http://www.w3.org/2000/svg" viewBox="0 0 850.39 850.39">
<g>
	<path d="M425.2,841.67C195.56,841.67,8.72,654.84,8.72,425.2S195.56,8.72,425.2,8.72,841.67,195.56,841.67,425.2,654.84,841.67,425.2,841.67Zm0-804.22C211.38,37.45,37.45,211.38,37.45,425.2S211.38,813,425.2,813,813,639,813,425.2,639,37.45,425.2,37.45Z" fill="#fff"></path>
	<path d="M425.2,850.39C190.74,850.39,0,659.65,0,425.2S190.74,0,425.2,0,850.39,190.74,850.39,425.2,659.65,850.39,425.2,850.39Zm0-832.95C200.36,17.44,17.44,200.36,17.44,425.2S200.36,833,425.2,833,833,650,833,425.2,650,17.44,425.2,17.44Zm0,804.23c-218.62,0-396.47-177.85-396.47-396.47S206.58,28.73,425.2,28.73,821.67,206.58,821.67,425.2,643.82,821.67,425.2,821.67Zm0-775.5c-209,0-379,170-379,379s170,379,379,379,379-170,379-379S634.19,46.17,425.2,46.17Z" fill="#fff"></path>
	<path d="M658.25,425.15h0a26.17,26.17,0,0,1-26.17,26.17H451.36V632A26.16,26.16,0,0,1,425.2,658.2h0A26.17,26.17,0,0,1,399,632V451.32H218.31a26.17,26.17,0,0,1-26.16-26.17h0A26.16,26.16,0,0,1,218.31,399H399V218.36a26.17,26.17,0,0,1,26.17-26.17h0a26.17,26.17,0,0,1,26.16,26.17V399H632.08A26.17,26.17,0,0,1,658.25,425.15Z" fill="#fff"></path>
</g>
</svg>