<svg xmlns="http://www.w3.org/2000/svg" viewBox="0 0 593.41 850.39">
<g>
	<path d="M667.46,372.65l-234,263a11.16,11.16,0,0,1-16.47.07l-238-263a10.16,10.16,0,0,1,1-14.67h0a11,11,0,0,1,15.16,1L414.45,601.39V25.69A10.57,10.57,0,0,1,425.19,15.3h0a10.57,10.57,0,0,1,10.74,10.39V601L651.18,359.1A11,11,0,0,1,666.33,358h0A10.15,10.15,0,0,1,667.46,372.65Z" fill="#fff" transform="translate(-128.49)"></path>
	<path d="M425.19,648.68a20.89,20.89,0,0,1-15.49-6.8l-238-263A19.31,19.31,0,0,1,173.57,351a20.93,20.93,0,0,1,28.8,1.84L404.78,576.49V25.69c0-10.89,9.16-19.75,20.41-19.75s20.42,8.86,20.42,19.75V575.76L643.85,353a20.89,20.89,0,0,1,28.8-2.07,19.35,19.35,0,0,1,2.15,27.84h0l-234,263a20.89,20.89,0,0,1-15.51,6.92ZM187,364.79a1.1,1.1,0,0,0-.7.26,1.12,1.12,0,0,0-.1,1.45l238.05,263a1.21,1.21,0,0,0,.93.41h0a1.23,1.23,0,0,0,.93-.42l234-263h0a1,1,0,0,0-.11-1.46l-1.49.12-232.26,261V25.69c0-1.13-2.12-1.13-2.13,0v600.6L187.81,365.14A1.06,1.06,0,0,0,187,364.79Z" fill="#fff" transform="translate(-128.49)"></path>
	<path d="M425.19,645.25a17.28,17.28,0,0,1-12.82-5.62l-238.06-263a16,16,0,0,1,1.59-23.05,17.29,17.29,0,0,1,23.81,1.53L408.32,585.6V25.69c0-9,7.57-16.33,16.88-16.33s16.87,7.33,16.87,16.33V585L646.53,355.22a17.27,17.27,0,0,1,23.81-1.71,16,16,0,0,1,1.77,23l-234,263a17.23,17.23,0,0,1-12.84,5.73ZM187,361.37a4.66,4.66,0,0,0-3,1.1,4.36,4.36,0,0,0-.43,6.29l238.05,263a4.91,4.91,0,0,0,3.61,1.58,4.81,4.81,0,0,0,3.59-1.61l234-263,4.65,3.87-4.65-3.87a4.37,4.37,0,0,0-.49-6.28,4.73,4.73,0,0,0-6.49.47l-226,254V25.69a4.61,4.61,0,0,0-9.21,0v591.5L190.48,362.89A4.66,4.66,0,0,0,187,361.37Z" fill="#fff" transform="translate(-128.49)"></path>
	<path d="M425.27,654.61h-.08a27.12,27.12,0,0,1-20.1-8.81L167,382.75a25.1,25.1,0,0,1,2.51-36.27A27.2,27.2,0,0,1,207,348.9L398.64,560.69v-535C398.64,11.52,410.55,0,425.19,0s26.56,11.52,26.56,25.69V559.76L639.2,349.12a26.63,26.63,0,0,1,18.15-8.86,26.94,26.94,0,0,1,19.31,6.16,25.14,25.14,0,0,1,2.78,36.21l-234,263a27,27,0,0,1-20.14,9Z" transform="translate(-128.49)" fill="#fff"></path>
	<rect x="398.64" y="527.14" width="53.11" height="593.41" rx="26.55" transform="translate(1120.54 398.64) rotate(90)" fill="#fff"></rect>
</g>
</svg>