<svg xmlns="http://www.w3.org/2000/svg" viewBox="0 0 70.76 70.76">
	<g>
		<path d="M32.47,47.92v-1.4a12.06,12.06,0,0,1,.43-3.23,12.43,12.43,0,0,1,1-2.52,10.52,10.52,0,0,1,1.63-2.16,21.81,21.81,0,0,1,1.76-1.72c.44-.38,1.11-.91,2-1.62s1.45-1.12,1.89-1.49,1-.88,1.63-1.54a9.24,9.24,0,0,0,1.46-1.85,9.6,9.6,0,0,0,.87-2.14,9.89,9.89,0,0,0,.36-2.7,8.14,8.14,0,0,0-2.77-6.46,10.65,10.65,0,0,0-7.27-2.43,11.16,11.16,0,0,0-7.11,2.26,8.09,8.09,0,0,0-3.2,6H20.73A12.24,12.24,0,0,1,23,18.29,13,13,0,0,1,28.3,14a17.53,17.53,0,0,1,7.13-1.43,15.58,15.58,0,0,1,10.46,3.53A11.75,11.75,0,0,1,50,25.55a13.41,13.41,0,0,1-.45,3.54,13.61,13.61,0,0,1-1,2.75,11,11,0,0,1-1.7,2.3A21.8,21.8,0,0,1,45,36c-.5.43-1.19,1-2.08,1.66s-1.39,1.13-1.78,1.46-.89.82-1.51,1.45a8.36,8.36,0,0,0-1.36,1.72,9.82,9.82,0,0,0-.78,1.9,7.62,7.62,0,0,0-.35,2.36v1.4Z" fill="#fff"></path><circle cx="34.8" cy="55.05" r="3.12" fill="#fff"></circle><path d="M35.38,70.76A35.38,35.38,0,1,1,70.76,35.38,35.42,35.42,0,0,1,35.38,70.76ZM35.38,3A32.35,32.35,0,1,0,67.73,35.38,32.38,32.38,0,0,0,35.38,3Z" fill="#fff"></path>
	</g>
</svg>